<svg xmlns="http://www.w3.org/2000/svg" viewBox="0 0 32 32">
  <defs>
    <linearGradient id="bg" x1="0%" y1="0%" x2="100%" y2="100%">
      <stop offset="0%" style="stop-color:#8FB369"/>
      <stop offset="100%" style="stop-color:#A5C682"/>
    </linearGradient>
  </defs>
  <rect width="32" height="32" rx="6" fill="url(#bg)"/>
  <path d="M16 6c-3.3 0-6 2.7-6 6s2.7 6 6 6 6-2.7 6-6-2.7-6-6-6zm0 10c-2.2 0-4-1.8-4-4s1.8-4 4-4 4 1.8 4 4-1.8 4-4 4z" fill="white"/>
  <path d="M8 20h16v2c0 1.1-.9 2-2 2H10c-1.1 0-2-.9-2-2v-2z" fill="white" opacity="0.9"/>
  <circle cx="12" cy="24" r="1" fill="white"/>
  <circle cx="16" cy="24" r="1" fill="white"/>
  <circle cx="20" cy="24" r="1" fill="white"/>
</svg>
